<svg xmlns="http://www.w3.org/2000/svg" viewBox="0 0 86 50.48"><defs><style>.cls-1{fill:#e7710a;}.cls-2{fill:#f8aa00;}.cls-3{fill:#e7710b;}.cls-4{fill:#f8ab01;}</style></defs><title>Ресурс 4</title><g id="Слой_2" data-name="Слой 2"><g id="Слой_1-2" data-name="Слой 1"><path class="cls-1" d="M86,30.18v-8c-1.93-5.13-2.91-10.77-7.75-14.32L69.92,16h0c7.77,10.57.17,20.78-8.19,21.68-4.09.44-7.41-1.21-10.62-3.38l-8.29,8.1c2.93,4.38,6.72,6.21,12.16,7.27a26.77,26.77,0,0,0,6.18.74c4.22.29,5.42-.45,5.71-.54C76.45,46.51,82.57,39.69,86,30.18Z"/><path class="cls-2" d="M50.65,2.26C34.22,7.64,30.54,29.72,42.18,41.75c.21.22.42.44.64.65l8.29-8.1q-.39-.51-.75-1C47,28.57,46,23.52,49.29,18.2c2.72-4.44,7-6.44,12.23-6.1,2.86.18,5.12,1.57,7.32,3.13l1.08.77h0l8.33-8.14c-.23-.31-.48-.61-.72-.89C74.21,3.23,69.85,1.67,64.75.53c-3.59-.73-4.48-.8-9.65.39C50.65,2.26,52.28,1.72,50.65,2.26Z"/><path class="cls-3" d="M7.16,42.38q3.43-3.5,6.88-7l1.33-1.35h0Q9,25.23,15.39,16.4L14,15,7.24,8h0C3.14,11.06,2.1,15.94,0,20.18v10C2.08,34.42,3.06,39.32,7.16,42.38Z"/><path class="cls-4" d="M26.6.18A30.85,30.85,0,0,0,15.11,2.42C12.47,3.68,9.73,4.82,7.83,7.2A8.43,8.43,0,0,0,7.24,8L14,15a12.5,12.5,0,0,0,1.38,1.42C20.33,13,27.06,11,32.6,14.9c1.21.83,1.74.77,2.74-.45C42,6.34,41.4,4.13,31.55,1.15"/><path class="cls-4" d="M35.72,36.63c-1-1.45-1.6-2.05-3.44-.83-6,4-11.65,2.58-16.91-1.74h0L14,35.41q-3.43,3.48-6.88,7c.2.27.41.54.63.79,2.34,2.73,5.45,4.18,8.64,5.5A19.57,19.57,0,0,0,24,50.18h3.79a9.72,9.72,0,0,0,3.44-.73l.07,0C41.48,46,41.76,45.15,35.72,36.63Z"/></g></g></svg>